<?xml version="1.0" standalone="no"?>
<!DOCTYPE svg PUBLIC "-//W3C//DTD SVG 20010904//EN"
 "http://www.w3.org/TR/2001/REC-SVG-20010904/DTD/svg10.dtd">
<svg version="1.0" xmlns="http://www.w3.org/2000/svg"
 width="1024.000000pt" height="650.000000pt" viewBox="0 0 1024.000000 650.000000"
 preserveAspectRatio="xMidYMid meet">

<g transform="translate(0.000000,650.000000) scale(0.100000,-0.100000)"
fill="#000000" stroke="none">
<path d="M4956 5379 c-61 -17 -106 -82 -106 -154 0 -43 -1 -45 -28 -45 -63 0
-103 -91 -62 -142 30 -38 114 -62 199 -56 l66 5 1 -56 c0 -31 6 -67 13 -80 12
-22 17 -23 85 -19 86 6 136 29 194 91 47 52 69 98 78 167 6 43 4 49 -16 60
-15 8 -52 10 -106 8 -46 -3 -81 -1 -78 3 8 13 -44 106 -83 150 -54 60 -105 82
-157 68z"/>
<path d="M2676 3811 c-4 -5 -2 -12 3 -15 5 -4 12 -2 15 3 4 5 2 12 -3 15 -5 4
-12 2 -15 -3z"/>
<path d="M2795 3790 c-4 -6 -11 -7 -17 -4 -6 4 -8 3 -5 -3 3 -5 -7 -21 -23
-37 -79 -74 -161 -236 -159 -313 0 -21 4 -14 14 24 25 93 120 257 143 248 8
-3 10 0 6 6 -4 6 10 26 30 45 20 18 36 35 36 38 0 10 -19 7 -25 -4z"/>
<path d="M2589 3713 c-13 -16 -12 -17 4 -4 9 7 17 15 17 17 0 8 -8 3 -21 -13z"/>
<path d="M2890 3679 c0 -5 5 -7 10 -4 6 3 10 8 10 11 0 2 -4 4 -10 4 -5 0 -10
-5 -10 -11z"/>
<path d="M4725 3658 c-2 -7 -25 -87 -50 -178 l-46 -164 -257 -261 c-855 -867
-1505 -1606 -1631 -1853 -21 -42 -21 -44 -4 -67 35 -46 148 -173 158 -178 19
-8 455 351 810 668 401 359 905 754 1243 975 l203 133 107 -36 c274 -93 645
-152 1162 -188 91 -6 166 -12 166 -13 1 0 -4 -30 -12 -66 -51 -245 -38 -611
31 -910 14 -58 38 -188 55 -290 17 -102 33 -193 36 -202 5 -16 21 -18 155 -18
111 0 151 3 154 13 10 27 85 783 105 1052 13 178 13 459 0 550 -28 188 -142
308 -388 407 -133 54 -550 192 -822 272 -124 37 -231 70 -239 74 -7 4 -37 70
-66 147 l-52 140 -407 3 c-320 2 -407 0 -411 -10z"/>
<path d="M2546 3643 c-6 -14 -5 -15 5 -6 7 7 10 15 7 18 -3 3 -9 -2 -12 -12z"/>
<path d="M2834 3525 c-4 -8 -11 -12 -17 -8 -6 3 -7 1 -3 -5 10 -16 14 -15 26
8 6 11 8 20 5 20 -3 0 -8 -7 -11 -15z"/>
<path d="M2034 3511 c20 -22 26 -25 26 -13 0 4 -10 13 -22 21 -23 14 -23 14
-4 -8z"/>
<path d="M1940 3458 c0 -7 30 -70 73 -153 38 -74 77 -167 102 -245 35 -112 47
-137 39 -85 -9 68 -63 215 -120 330 -49 100 -93 172 -94 153z"/>
<path d="M2765 3430 c-4 -6 -10 -8 -14 -6 -4 3 -8 -1 -8 -9 0 -13 4 -12 19 2
18 16 22 23 14 23 -3 0 -8 -5 -11 -10z"/>
<path d="M2140 3406 c0 -2 8 -10 18 -17 15 -13 16 -12 3 4 -13 16 -21 21 -21
13z"/>
<path d="M2645 3371 c-3 -6 -3 -11 2 -10 4 1 10 0 13 -1 20 -7 40 -7 40 2 0 6
-6 8 -14 5 -7 -3 -18 -1 -24 5 -6 6 -12 6 -17 -1z"/>
<path d="M2487 3346 c-3 -8 2 -20 11 -27 14 -11 15 -11 5 0 -6 7 -9 20 -6 27
3 8 3 14 0 14 -3 0 -7 -6 -10 -14z"/>
<path d="M2215 3269 c-4 -6 -5 -12 -2 -15 2 -3 7 2 10 11 7 17 1 20 -8 4z"/>
<path d="M2480 3259 c-7 -11 -10 -23 -7 -25 2 -2 9 7 15 21 14 30 7 33 -8 4z"/>
<path d="M2227 3229 c7 -7 15 -10 18 -7 3 3 -2 9 -12 12 -14 6 -15 5 -6 -5z"/>
<path d="M2432 3155 c-17 -37 -14 -45 4 -12 9 16 14 31 11 33 -2 2 -9 -7 -15
-21z"/>
<path d="M1855 3109 c-4 -6 -5 -12 -2 -15 2 -3 7 2 10 11 7 17 1 20 -8 4z"/>
<path d="M2271 3094 c0 -11 3 -14 6 -6 3 7 2 16 -1 19 -3 4 -6 -2 -5 -13z"/>
<path d="M2590 3106 c0 -2 7 -7 16 -10 8 -3 12 -2 9 4 -6 10 -25 14 -25 6z"/>
<path d="M2655 3084 c11 -8 19 -21 17 -27 -2 -7 0 -9 4 -4 4 4 16 -1 28 -10
20 -18 20 -18 0 9 -10 15 -30 32 -44 37 -24 11 -24 11 -5 -5z"/>
<path d="M2386 3034 c-9 -26 -16 -52 -15 -58 0 -6 9 13 20 43 10 30 17 56 15
58 -2 2 -11 -17 -20 -43z"/>
<path d="M2509 3063 c-13 -16 -12 -17 4 -4 9 7 17 15 17 17 0 8 -8 3 -21 -13z"/>
<path d="M2575 2936 c-67 -106 -112 -222 -181 -478 -3 -9 0 -19 6 -23 5 -3 10
-1 10 5 0 6 4 9 8 6 5 -3 6 9 4 26 -4 23 -2 29 8 23 8 -5 11 -4 6 3 -18 30 79
307 159 450 34 60 21 52 -20 -12z"/>
<path d="M2731 2964 c0 -11 3 -14 6 -6 3 7 2 16 -1 19 -3 4 -6 -2 -5 -13z"/>
<path d="M1936 2955 c4 -8 11 -15 16 -15 6 0 5 6 -2 15 -7 8 -14 15 -16 15 -2
0 -1 -7 2 -15z"/>
<path d="M2351 2914 c0 -11 3 -14 6 -6 3 7 2 16 -1 19 -3 4 -6 -2 -5 -13z"/>
<path d="M2240 2880 c-9 -6 -10 -10 -3 -10 6 0 15 5 18 10 8 12 4 12 -15 0z"/>
<path d="M2341 2874 c0 -11 3 -14 6 -6 3 7 2 16 -1 19 -3 4 -6 -2 -5 -13z"/>
<path d="M2034 2869 c-4 -7 -3 -10 4 -5 6 3 15 -2 21 -11 5 -10 12 -15 15 -12
4 3 -2 14 -13 23 -14 13 -21 14 -27 5z"/>
<path d="M2186 2832 c-3 -5 1 -9 9 -9 8 0 12 4 9 9 -3 4 -7 8 -9 8 -2 0 -6 -4
-9 -8z"/>
<path d="M2330 2831 c0 -6 4 -13 10 -16 6 -3 7 1 4 9 -7 18 -14 21 -14 7z"/>
<path d="M2211 2744 c0 -11 3 -14 6 -6 3 7 2 16 -1 19 -3 4 -6 -2 -5 -13z"/>
<path d="M2221 2704 c0 -11 3 -14 6 -6 3 7 2 16 -1 19 -3 4 -6 -2 -5 -13z"/>
<path d="M2678 2703 c6 -2 9 -10 6 -15 -4 -7 -2 -8 5 -4 13 9 5 26 -12 25 -9
0 -8 -2 1 -6z"/>
<path d="M1729 2687 c6 -8 9 -16 6 -19 -3 -2 2 -5 10 -5 13 0 13 3 -2 19 -19
21 -31 25 -14 5z"/>
<path d="M2231 2654 c0 -11 3 -14 6 -6 3 7 2 16 -1 19 -3 4 -6 -2 -5 -13z"/>
<path d="M1791 2642 c13 -10 37 -24 52 -32 73 -37 226 -213 213 -246 -3 -9 -1
-12 4 -9 6 4 17 -9 25 -27 13 -28 14 -29 12 -8 -4 33 -37 96 -81 153 -19 25
-32 48 -29 51 4 3 1 6 -6 6 -15 0 -42 25 -36 34 3 3 2 4 -1 1 -4 -2 -22 9 -41
25 -35 31 -104 70 -124 70 -6 0 -1 -8 12 -18z"/>
<path d="M2294 2615 c-3 -8 -4 -20 -2 -27 3 -7 7 -1 10 15 6 29 1 36 -8 12z"/>
<path d="M2242 2590 c0 -14 2 -19 5 -12 2 6 2 18 0 25 -3 6 -5 1 -5 -13z"/>
<path d="M2710 2518 c-97 -99 -203 -269 -235 -376 -7 -23 -7 -24 12 -5 11 10
19 20 17 23 -3 6 34 82 80 165 28 50 105 150 165 214 30 32 36 41 27 41 -3 0
-32 -28 -66 -62z"/>
<path d="M2252 2525 c0 -16 2 -22 5 -12 2 9 2 23 0 30 -3 6 -5 -1 -5 -18z"/>
<path d="M2282 2520 c0 -19 2 -27 5 -17 2 9 2 25 0 35 -3 9 -5 1 -5 -18z"/>
<path d="M2267 2395 c3 -44 7 -82 9 -84 8 -9 2 125 -6 144 -6 13 -7 -10 -3
-60z"/>
<path d="M1754 2412 c4 -3 14 -7 22 -8 9 -1 13 0 10 4 -4 3 -14 7 -22 8 -9 1
-13 0 -10 -4z"/>
<path d="M2392 2400 c0 -14 2 -19 5 -12 2 6 2 18 0 25 -3 6 -5 1 -5 -13z"/>
<path d="M1756 2378 c3 -5 10 -6 15 -3 13 9 11 12 -6 12 -8 0 -12 -4 -9 -9z"/>
<path d="M2830 2381 c0 -6 4 -13 10 -16 6 -3 7 1 4 9 -7 18 -14 21 -14 7z"/>
<path d="M2382 2350 c0 -14 2 -19 5 -12 2 6 2 18 0 25 -3 6 -5 1 -5 -13z"/>
<path d="M2735 2319 c-4 -6 -5 -12 -2 -15 2 -3 7 2 10 11 7 17 1 20 -8 4z"/>
<path d="M2365 2265 c-3 -31 -5 -59 -2 -61 3 -3 8 20 12 51 3 31 5 59 2 61 -3
3 -8 -20 -12 -51z"/>
<path d="M2793 2313 c4 -3 1 -13 -6 -22 -11 -14 -10 -14 5 -2 16 12 16 31 1
31 -4 0 -3 -3 0 -7z"/>
<path d="M2135 2280 c-3 -5 -2 -10 4 -10 5 0 13 5 16 10 3 6 2 10 -4 10 -5 0
-13 -4 -16 -10z"/>
<path d="M2283 2235 c0 -22 2 -30 4 -17 2 12 2 30 0 40 -3 9 -5 -1 -4 -23z"/>
<path d="M1736 2252 c-3 -5 1 -9 9 -9 8 0 12 4 9 9 -3 4 -7 8 -9 8 -2 0 -6 -4
-9 -8z"/>
<path d="M2693 2235 c0 -8 4 -12 9 -9 5 3 6 10 3 15 -9 13 -12 11 -12 -6z"/>
<path d="M1815 2200 c60 -15 141 -65 193 -118 28 -30 52 -60 52 -66 0 -6 8
-20 16 -31 16 -19 16 -19 9 5 -31 102 -181 223 -274 219 -25 -1 -25 -1 4 -9z"/>
<path d="M2175 2186 c10 -14 19 -26 22 -26 7 0 -17 39 -28 46 -6 3 -3 -5 6
-20z"/>
<path d="M2650 2206 c0 -2 8 -10 18 -17 15 -13 16 -12 3 4 -13 16 -21 21 -21
13z"/>
<path d="M2341 2073 c-7 -65 -16 -140 -20 -168 l-9 -50 -2 75 c-2 74 -2 74
-10 27 -5 -27 -4 -62 1 -80 5 -17 9 -43 9 -56 0 -24 -1 -24 -42 14 l-42 40 42
-47 42 -48 0 -140 c0 -87 4 -140 10 -140 6 0 10 12 10 26 0 30 20 22 21 -9 1
-13 5 -5 11 18 12 49 3 142 -19 192 -17 41 -14 171 8 361 6 51 9 95 6 98 -2 3
-10 -48 -16 -113z m-1 -443 l-5 -55 -8 55 c-4 30 -7 66 -7 80 l0 25 13 -25 c9
-16 11 -44 7 -80z"/>
<path d="M2217 2115 c9 -19 18 -33 21 -31 4 5 -26 66 -33 66 -3 0 3 -16 12
-35z"/>
<path d="M2293 2105 c0 -27 2 -38 4 -22 2 15 2 37 0 50 -2 12 -4 0 -4 -28z"/>
<path d="M2892 2106 c7 -8 15 -12 17 -11 5 6 -10 25 -20 25 -5 0 -4 -6 3 -14z"/>
<path d="M1705 2089 c-4 -6 -5 -12 -2 -15 2 -3 7 2 10 11 7 17 1 20 -8 4z"/>
<path d="M2926 2077 c3 -10 9 -15 12 -12 3 3 0 11 -7 18 -10 9 -11 8 -5 -6z"/>
<path d="M2530 2000 c-12 -7 -10 -9 7 -7 12 0 19 5 17 9 -6 10 -6 10 -24 -2z"/>
<path d="M2620 1924 c-30 -24 -74 -61 -98 -81 -23 -21 -49 -37 -57 -37 -12 2
-13 -1 -5 -11 8 -10 7 -14 -2 -18 -7 -2 -10 -8 -5 -12 4 -5 22 6 40 23 31 30
55 43 43 24 -3 -5 1 -9 9 -9 12 0 12 3 3 15 -10 11 -4 20 28 48 21 19 58 48
82 65 23 16 42 32 42 34 0 15 -32 -2 -80 -41z"/>
<path d="M1826 1921 c-4 -5 -2 -12 3 -15 5 -4 12 -2 15 3 4 5 2 12 -3 15 -5 4
-12 2 -15 -3z"/>
<path d="M2466 1913 c-6 -14 -5 -15 5 -6 7 7 10 15 7 18 -3 3 -9 -2 -12 -12z"/>
<path d="M1870 1894 c0 -1 12 -10 28 -20 19 -13 24 -13 15 -2 -7 8 -11 17 -8
19 2 3 -5 5 -15 5 -11 0 -20 -1 -20 -2z"/>
<path d="M2180 1896 c0 -3 9 -10 20 -16 11 -6 20 -8 20 -6 0 3 -9 10 -20 16
-11 6 -20 8 -20 6z"/>
<path d="M2391 1874 c0 -11 3 -14 6 -6 3 7 2 16 -1 19 -3 4 -6 -2 -5 -13z"/>
<path d="M2381 1834 c0 -11 3 -14 6 -6 3 7 2 16 -1 19 -3 4 -6 -2 -5 -13z"/>
<path d="M2788 1823 c10 -4 9 -10 -5 -27 l-18 -21 22 19 c23 19 22 37 0 35 -8
0 -8 -2 1 -6z"/>
<path d="M2371 1784 c0 -11 3 -14 6 -6 3 7 2 16 -1 19 -3 4 -6 -2 -5 -13z"/>
<path d="M2362 1730 c0 -14 2 -19 5 -12 2 6 2 18 0 25 -3 6 -5 1 -5 -13z"/>
<path d="M2419 1723 c-13 -16 -12 -17 4 -4 9 7 17 15 17 17 0 8 -8 3 -21 -13z"/>
<path d="M1220 580 c0 -7 1248 -10 3491 -10 2313 0 3488 3 3484 10 -8 13
-6975 13 -6975 0z"/>
</g>
</svg>
